<svg width="230" height="105" viewBox="0 0 230 105" fill="none" xmlns="http://www.w3.org/2000/svg">
    <g clip-path="url(#clip0_105_4)">
        <path d="M230 100H0V105H230V100Z" fill="#03012C"/>
        <path d="M73.5868 49.5615C74.4554 49.5304 75.1212 48.5043 75.0759 47.267C75.0377 46.0308 74.2991 45.0512 73.4329 45.0834C72.5702 45.1109 71.902 46.1406 71.9473 47.3791C71.9891 48.6129 72.7229 49.5877 73.5868 49.5615Z" fill="#3CB35A"/>
        <path d="M89.029 49.318C88.3155 48.5747 87.2953 48.2847 86.0449 48.4315C85.6225 48.4804 85.2001 48.5341 84.7741 48.5902C84.026 48.688 83.2635 48.7883 82.4534 48.8515C81.994 48.8515 80.9332 47.7991 80.6886 46.3601C79.8105 41.2079 77.7295 36.7764 74.6571 33.1396C76.4134 31.5765 78.5039 29.5219 76.7809 27.4684C75.3288 25.7395 71.3985 26.1774 67.5421 27.1653C61.8613 23.8148 54.6079 22 46.1291 22C26.0203 22 12.6638 32.4273 11.3155 48.8062C10.5137 48.6904 9.55552 48.4625 8.76683 47.996C9.78104 47.2849 10.491 46.3828 10.9134 45.4533C11.7283 43.6564 11.4849 41.7616 10.3192 40.8452C9.51615 40.2164 8.50074 40.0625 7.53068 40.4264C6.24562 40.9085 5.29226 42.1792 4.97845 43.827C4.75891 44.988 4.78754 46.038 5.06197 46.9663C4.09669 47.125 2.89872 47.1226 1.41321 46.8434C0.765304 46.7217 0.141267 47.1488 0.0207548 47.7955C-0.10095 48.4434 0.325018 49.0663 0.972919 49.188C3.10276 49.5877 4.88419 49.5054 6.33869 49.1104C7.71921 50.5005 9.73927 51.0076 11.2045 51.1973C11.2033 51.3238 11.195 51.4491 11.195 51.5768C11.195 60.2596 14.4046 67.4509 20.1093 72.5721L19.2084 80.1453C19.0963 81.095 19.3874 82.04 20.0067 82.7369C20.6259 83.4325 21.5292 83.8322 22.4849 83.8322H29.2825C30.8014 83.8322 32.5447 82.9337 33.4276 81.6952C33.4384 81.6785 34.634 80.1119 35.9823 80.3982L36.03 80.1727C39.1633 80.8135 42.5364 81.1535 46.1303 81.1535C49.6872 81.1535 53.0735 80.829 56.2378 80.2204L56.276 80.397C57.6434 80.1083 58.8282 81.6881 58.8306 81.6916C59.7112 82.9314 61.4544 83.8298 62.9758 83.8298H69.7769C70.7339 83.8298 71.6371 83.4301 72.2564 82.7333C72.8756 82.0353 73.1656 81.0903 73.0522 80.1405L72.2075 73.0362C72.9592 72.3812 73.6667 71.6963 74.3087 70.9708C75.0544 70.3026 75.8944 70.0044 77.0196 70.0044C77.9443 70.0044 78.8857 70.2072 79.7973 70.4029C81.4427 70.7561 82.9593 70.91 83.9568 70.2144C86.2728 68.6 84.6083 65.6146 83.6143 63.8308C83.5547 63.7246 83.4902 63.6077 83.4258 63.4907C83.6776 63.4048 83.9496 63.3177 84.1859 63.2426C84.9972 62.9848 85.916 62.6925 86.793 62.2725C89.7056 60.8824 89.8666 56.2445 89.974 53.1744L89.9931 52.6411C90.0516 51.1448 89.7378 50.0566 89.029 49.318ZM7.30636 46.1131C7.18346 45.5846 7.18943 44.9736 7.32187 44.2732C7.50563 43.3044 7.99961 42.7997 8.36711 42.6612C8.44466 42.6326 8.51148 42.6207 8.56995 42.6207C8.69285 42.6207 8.77756 42.672 8.84319 42.7221C8.98279 42.8319 9.16177 43.5347 8.73938 44.4677C8.57711 44.8257 8.17023 45.5285 7.30636 46.1131ZM30.5103 79.6203C30.3039 79.9114 29.6369 80.255 29.2813 80.255H22.7975L23.4084 75.1243C25.7089 76.648 28.3029 77.9033 31.1546 78.8686C30.9029 79.1287 30.6761 79.3864 30.5103 79.6203ZM46.1279 77.5763C26.7876 77.5763 14.7733 67.6144 14.7733 51.5779C14.7733 38.5459 22.708 29.5254 36.061 26.6033L36.4154 29.1925L38.7803 28.8692C40.7025 28.6055 43.9313 28.4683 46.1279 28.4683C48.3246 28.4683 51.5534 28.6055 53.4756 28.8692L55.8405 29.1925L56.1889 26.6427C58.4774 27.1522 60.6192 27.8323 62.5832 28.695C61.2468 29.1699 60.1038 29.6173 59.3556 29.9228C58.7459 30.1721 58.4536 30.869 58.7029 31.4787C58.9511 32.0884 59.648 32.3795 60.2589 32.1314C60.3364 32.0991 60.414 32.0705 60.4915 32.0383C67.2844 29.2928 74.0044 27.8741 74.9506 29.0004C75.2859 29.399 73.5748 30.9107 72.7539 31.635C71.964 32.3318 71.1479 33.0537 70.5835 33.7875C69.2519 35.5188 67.8714 39.2809 67.0863 41.7938C66.9813 42.1327 66.8846 42.4524 66.8023 42.7376C66.6186 43.3712 66.9837 44.0322 67.6173 44.2148C67.7282 44.247 67.8404 44.2625 67.949 44.2625C68.4668 44.2625 68.9429 43.9224 69.0944 43.3998C69.8712 40.7116 71.1085 37.4196 72.1311 35.7575C74.6917 38.8717 76.4194 42.6266 77.158 46.9579C77.1974 47.1906 77.2666 47.4256 77.3322 47.6595C77.4945 48.9446 77.5923 50.2738 77.5923 51.6448C77.5923 58.2228 75.6617 63.9441 72.0261 68.2349C71.9557 68.2957 71.8758 68.3387 71.8065 68.4031L71.6789 68.5355C66.6484 74.2819 57.3356 77.5763 46.1279 77.5763ZM69.4583 80.2538H62.9722C62.6166 80.2538 61.9508 79.9102 61.7444 79.6203C61.6 79.4186 61.4115 79.1967 61.2015 78.9712C64.0389 78.0691 66.6209 76.8986 68.8904 75.4811L69.4583 80.2538ZM86.4136 52.4991L86.3933 53.0551C86.2191 58.0522 85.5354 58.9089 85.2466 59.0473C84.5916 59.3611 83.8315 59.6021 83.0989 59.836C81.3938 60.3789 79.4609 60.9934 79.4609 62.9335C79.4609 63.7401 79.8904 64.5109 80.4846 65.5776C80.6874 65.9415 81.0215 66.5393 81.259 67.056C81.0323 67.0118 80.7877 66.9593 80.5478 66.9068C79.5563 66.6933 78.3225 66.4284 77.0172 66.4284C76.7284 66.4284 76.46 66.4725 76.1844 66.4988C78.671 62.2987 79.9799 57.2504 79.9799 51.6483C79.9799 51.6221 79.9775 51.5958 79.9775 51.5684C80.7161 52.0934 81.5501 52.4323 82.4546 52.4323C82.5536 52.4323 82.6526 52.4287 82.7505 52.4203C83.6096 52.3523 84.4317 52.2461 85.2383 52.1411C85.6308 52.0898 86.0198 52.0397 86.4112 51.9932C86.4183 52.1173 86.4231 52.2831 86.4136 52.4991Z" fill="#3CB35A"/>
        <path d="M117.614 18.367C122.843 18.367 125.091 20.798 125.091 25.7519V26.8987C125.091 30.2013 124.082 32.2654 121.834 33.3204V33.4121C124.541 34.4671 125.596 36.8523 125.596 40.2466V42.8612C125.596 47.8151 122.981 50.4755 117.935 50.4755H110V18.367H117.614ZM117.293 36.0267H115.046V45.8886H117.935C119.633 45.8886 120.55 45.1088 120.55 42.7236V39.9256C120.55 36.9441 119.587 36.0267 117.293 36.0267ZM117.477 22.9539H115.046V31.4397H117.018C118.899 31.4397 120.045 30.6141 120.045 28.0454V26.2565C120.045 23.963 119.266 22.9539 117.477 22.9539ZM131.496 18.367H136.541V43.1364C136.541 45.4299 137.55 46.2555 139.156 46.2555C140.761 46.2555 141.77 45.4299 141.77 43.1364V18.367H146.541V42.8153C146.541 47.9527 143.972 50.8883 139.018 50.8883C134.064 50.8883 131.496 47.9527 131.496 42.8153V18.367ZM153.083 50.4755V18.367H161.064C166.11 18.367 168.587 21.165 168.587 26.3024V42.5401C168.587 47.6775 166.11 50.4755 161.064 50.4755H153.083ZM160.972 22.9539H158.128V45.8886H160.972C162.578 45.8886 163.541 45.0629 163.541 42.7695V26.073C163.541 23.7795 162.578 22.9539 160.972 22.9539ZM182.468 37.1734V32.5865H189.532V42.7695C189.532 47.9068 186.963 50.8425 182.009 50.8425C177.055 50.8425 174.487 47.9068 174.487 42.7695V26.073C174.487 20.9356 177.055 18 182.009 18C186.963 18 189.532 20.9356 189.532 26.073V29.1921H184.761V25.7519C184.761 23.4585 183.752 22.5869 182.147 22.5869C180.541 22.5869 179.532 23.4585 179.532 25.7519V43.0905C179.532 45.384 180.541 46.2097 182.147 46.2097C183.752 46.2097 184.761 45.384 184.761 43.0905V37.1734H182.468ZM200.936 22.9539V31.8984H207.862V36.4854H200.936V45.8886H209.651V50.4755H195.89V18.367H209.651V22.9539H200.936ZM214.404 22.9539V18.367H230V22.9539H224.725V50.4755H219.679V22.9539H214.404Z" fill="#03012C"/>
        <path d="M114.128 65.0533V72.3718H119.796V76.1249H114.128V83.8187H121.259V87.5718H110V61.3002H121.259V65.0533H114.128ZM130.478 65.0533V72.9723H135.807V76.7254H130.478V87.5718H126.349V61.3002H137.271V65.0533H130.478ZM145.926 65.0533V72.9723H151.256V76.7254H145.926V87.5718H141.798V61.3002H152.719V65.0533H145.926ZM157.247 87.5718V61.3002H161.375V87.5718H157.247ZM174.985 77.7763H178.888V81.2666C178.888 85.4701 176.786 87.872 172.733 87.872C168.679 87.872 166.578 85.4701 166.578 81.2666V67.6054C166.578 63.402 168.679 61 172.733 61C176.786 61 178.888 63.402 178.888 67.6054V70.1575H174.985V67.3427C174.985 65.4662 174.159 64.7531 172.845 64.7531C171.532 64.7531 170.706 65.4662 170.706 67.3427V81.5293C170.706 83.4059 171.532 84.0814 172.845 84.0814C174.159 84.0814 174.985 83.4059 174.985 81.5293V77.7763ZM193.098 61.3002L197.301 87.5718H193.135L192.422 82.8054H187.356L186.643 87.5718H182.852L187.055 61.3002H193.098ZM189.833 65.9541L187.881 79.24H191.859L189.908 65.9541H189.833ZM209.785 77.7763H213.688V81.2666C213.688 85.4701 211.586 87.872 207.533 87.872C203.48 87.872 201.378 85.4701 201.378 81.2666V67.6054C201.378 63.402 203.48 61 207.533 61C211.586 61 213.688 63.402 213.688 67.6054V70.1575H209.785V67.3427C209.785 65.4662 208.959 64.7531 207.646 64.7531C206.332 64.7531 205.506 65.4662 205.506 67.3427V81.5293C205.506 83.4059 206.332 84.0814 207.646 84.0814C208.959 84.0814 209.785 83.4059 209.785 81.5293V77.7763ZM222.869 65.0533V72.3718H228.536V76.1249H222.869V83.8187H230V87.5718H218.741V61.3002H230V65.0533H222.869Z" fill="#03012C"/>
    </g>
    <defs>
        <clipPath id="clip0_105_4">
            <rect width="230" height="105" fill="white"/>
        </clipPath>
    </defs>
</svg>
